HIERARCHY
ROOT pelvis
{
	OFFSET 0.000000 0.000000 0.000000
	CHANNELS 6 Xposition Yposition Zposition Zrotation Xrotation Yrotation
	JOINT lfemur
	{
		OFFSET 11.446000 0.000000 0.000000
		CHANNELS 3 Zrotation Xrotation Yrotation
		JOINT ltibia
		{
			OFFSET 0.000000 -42.030400 0.000000
			CHANNELS 3 Zrotation Xrotation Yrotation
			JOINT lfoot
			{
				OFFSET 0.000000 -39.930200 0.000000
				CHANNELS 3 Zrotation Xrotation Yrotation
				JOINT ltoes
				{
					OFFSET 0.000000 0.000000 11.775800
					CHANNELS 3 Zrotation Xrotation Yrotation
					End Site
					{
					    OFFSET 0.000000 0.000000 5.000000
					}
				}
			}
		}
	}
	JOINT rfemur
	{
		OFFSET -11.446000 0.000000 0.000000
		CHANNELS 3 Zrotation Xrotation Yrotation
		JOINT rtibia
		{
			OFFSET 0.000000 -42.030400 0.000000
			CHANNELS 3 Zrotation Xrotation Yrotation
			JOINT rfoot
			{
				OFFSET 0.000000 -39.930200 0.000000
				CHANNELS 3 Zrotation Xrotation Yrotation
				JOINT rtoes
				{
					OFFSET 0.000000 0.000000 11.775800
					CHANNELS 3 Zrotation Xrotation Yrotation
					End Site
					{
					    OFFSET 0.000000 0.000000 5.000000
					}
				}
			}
		}
	}
	JOINT thorax
	{
		OFFSET 0.000000 11.255600 -5.000000
		CHANNELS 3 Zrotation Xrotation Yrotation
		JOINT head
		{
			OFFSET 0.000000 43.799300 0.000000
			CHANNELS 3 Zrotation Xrotation Yrotation
			End Site
			{
			    OFFSET 0.000000 5.000000 0.000000
			}
		}
		JOINT lclavicle
		{
			OFFSET 0.000000 39.863000 0.000000
			CHANNELS 3 Zrotation Xrotation Yrotation
			JOINT lhumerus
			{
				OFFSET 17.380600 4.958300 0.000000
				CHANNELS 3 Zrotation Xrotation Yrotation
				JOINT lradius
				{
					OFFSET 0.000000 -27.561300 0.000000
					CHANNELS 3 Zrotation Xrotation Yrotation
					JOINT lhand
					{
						OFFSET 0.000000 -26.933000 0.000000
						CHANNELS 3 Zrotation Xrotation Yrotation
						End Site
						{
						    OFFSET 0.000000 -5.000000 0.000000
						}
					}
				}
			}
		}
		JOINT rclavicle
		{
			OFFSET 0.000000 39.863000 0.000000
			CHANNELS 3 Zrotation Xrotation Yrotation
			JOINT rhumerus
			{
				OFFSET -17.380600 4.958300 0.000000
				CHANNELS 3 Zrotation Xrotation Yrotation
				JOINT rradius
				{
					OFFSET 0.000000 -27.561300 0.000000
					CHANNELS 3 Zrotation Xrotation Yrotation
					JOINT rhand
					{
						OFFSET 0.000000 -26.933000 0.000000
						CHANNELS 3 Zrotation Xrotation Yrotation
						End Site
						{
						    OFFSET 0.000000 -5.000000 0.000000
						}
					}
				}
			}
		}
	}
}
MOTION
Frames:	13
Frame Time:	0.0333333
77.8958 84.6033 -28.2169 -2.01142 0.257553 -1.10771 3.5041 -28.344 -1.85499 0.106882 25.382 -0.258633 0.401649 8.62857 4.5728 3.62787e-016 -5 -3.99088e-016 7.466 13.778 4.46512 -0.124483 27.0798 0.0781557 -1.58185 -4.60924 -8.88845 -1.98785e-016 -5 -0 2.03568 6.25912 3.65715 3.76141 -1.61381 -8.09721 4.96962e-017 7.95139e-016 -0 6.93866 -3.27675 -3.4803 9.61897 -15.3365 3.5064 -0.44741 -2.6436 -19.177 4.96962e-017 7.95139e-016 -0 -9.69052 -10.8951 18.7307 -19.8343 -28.1577 -9.27084 0.0300711 -0.680773 4.85277 
78.5075 85.2669 -24.6015 -2.06479 0.104999 -0.276801 3.25838 -26.316 -0.402025 0.111145 25.713 -0.246486 0.727251 9.01334 2.55756 4.96962e-017 -5 -0 7.25805 10.4101 2.38765 -0.244392 36.6368 0.153178 -0.460064 1.63743 -6.91567 -0 -5 -0 2.28647 6.14856 2.92864 3.66203 -0.313048 -9.83695 4.96962e-017 0 -1.19271e-015 7.06197 -3.40699 -2.22404 9.18233 -14.7027 3.30083 -0.517103 -2.83625 -20.6364 4.96962e-017 0 -1.19271e-015 -8.89509 -9.01525 16.028 -18.9688 -27.2195 -8.72145 0.043922 -0.827074 5.89811 
79.2586 85.8382 -21.0146 -1.0707 -0.275793 -0.415905 1.95377 -23.2087 0.859394 0.106995 25.1678 -0.237306 1.02169 8.67882 0.759323 1.41632e-016 -5 1.99544e-016 5.22326 5.68548 0.54649 -0.450977 46.8156 0.495045 -0.387432 10.2383 -3.58196 -9.93923e-017 -5 -0 1.21404 6.48112 2.95039 3.65508 -0.324844 -10.7733 9.93923e-017 7.95139e-016 3.97569e-016 7.5691 -3.27046 -7.95334 10.7581 -16.9571 4.06063 -0.292961 -2.14831 -15.4801 9.93923e-017 7.95139e-016 3.97569e-016 -7.9845 -7.39945 13.5837 -18.0626 -26.2087 -8.15692 0.0587067 -0.95956 6.84748 
79.9833 86.3832 -17.699 0.992132 -0.321669 -0.795813 -0.567144 -19.9171 1.41981 0.0915929 23.2953 -0.217009 1.05618 8.83943 0.669477 -3.23048e-017 -5 1.99544e-016 2.33099 0.191941 -0.898392 -0.802464 57.0028 0.801949 0.242745 11.9472 -4.57989 -3.97569e-016 -5 -0 -1.45628 6.62273 2.81601 4.22114 -0.254668 -10.3599 4.96962e-017 0 1.19271e-015 8.85526 -3.59056 -10.0384 11.5081 -17.9972 4.43911 -0.231316 -1.91224 -13.7406 4.96962e-017 0 1.19271e-015 -6.93757 -6.25186 13.1965 -16.9062 -24.8756 -7.45274 0.0578337 -0.95304 6.79935 
80.3523 86.805 -14.5883 1.66541 -0.743095 -0.223119 -1.61907 -16.8591 1.72313 0.0849431 22.2777 -0.212231 1.16418 7.4837 0.226839 -3.23048e-017 -5 1.99544e-016 1.12663 -4.21487 -3.05382 -1.21237 63.8221 1.21939 1.39694 7.99054 -10.392 3.31969e-015 -5 1.59635e-015 -2.40291 7.55264 1.75639 4.54987 -0.234385 -10.7105 -7.45443e-017 -7.95139e-016 -3.97569e-016 9.92828 -4.99249 -10.265 11.6165 -18.1465 4.49476 -0.228177 -1.89874 -13.6439 -7.45443e-017 -7.95139e-016 -3.97569e-016 -6.20504 -5.84524 12.185 -15.9633 -23.7527 -6.89272 0.115256 -1.34913 9.64913 
80.6359 87.0902 -11.633 1.65949 -0.728296 -0.165613 -1.94351 -15.0133 2.05623 0.0880972 22.8597 -0.226307 1.15682 5.57823 0.613979 -3.47828e-017 -5 -3.99088e-016 0.389092 -8.96932 -4.71113 -1.5258 67.3687 1.51273 1.55474 5.48218 -13.2428 1.65984e-015 -5 7.98176e-016 -2.11095 7.8767 0.822771 4.24316 -0.419116 -9.91759 6.21202e-017 0 -0 10.4233 -5.92477 -10.3541 12.0557 -18.7449 4.72216 -0.226696 -1.89221 -13.5972 6.21202e-017 0 -0 -5.79695 -5.25652 10.1548 -15.161 -22.7711 -6.42681 0.201598 -1.78463 12.8098 
80.8645 87.1898 -8.64901 2.11526 -0.527499 0.137206 -2.68029 -13.832 1.83762 0.0977276 24.2022 -0.251874 1.12271 3.36802 1.67696 2.6835e-016 -5 7.98176e-016 -0.733889 -13.3743 -6.53806 -1.62092 68.2783 1.58703 0.760534 1.52974 -14.5037 -5.46649e-015 -5 -7.98176e-015 -2.61261 7.73393 -0.096127 4.58515 -0.0925021 -10.0037 -1.22299e-016 -7.95139e-016 1.2424e-017 11.4966 -6.78988 -12.7091 12.8736 -19.8393 5.15513 -0.168869 -1.63517 -11.7194 -1.22299e-016 -7.95139e-016 1.2424e-017 -4.97602 -3.99791 8.18085 -14.8113 -22.3358 -6.22692 0.213107 -1.83478 13.1751 
80.9795 86.8531 -5.92139 2.62897 -0.0889931 0.753301 -3.41357 -13.7089 1.6373 0.117736 26.5701 -0.296807 1.20547 0.0835512 2.39692 -1.98785e-016 -5 -0 -1.86961 -18.0416 -8.54467 -1.49483 67.1236 1.432 -0.318242 -2.68268 -16.7611 -1.39131e-016 -5 -1.59635e-015 -3.27378 7.93536 -1.2768 5.3761 -0.222846 -9.97601 -7.45443e-017 0 -9.93923e-017 12.8496 -8.58008 -14.2508 13.2257 -20.303 5.34505 -0.153044 -1.55677 -11.1497 -7.45443e-017 0 -9.93923e-017 -4.40016 -3.66913 7.28316 -14.6989 -22.1955 -6.16318 0.166996 -1.6252 11.6483 
80.9384 86.7595 -3.17214 2.82149 0.0276959 0.8521 -3.58776 -12.7109 2.38288 0.143865 29.2134 -0.339346 1.28669 -2.49896 1.89705 -1.29219e-016 -5 7.98176e-016 -2.53582 -21.3031 -10.2397 -1.15724 63.2373 1.08588 -0.202081 -1.91244 -18.4201 -1.31201e-015 -5 3.1927e-015 -3.42296 8.31364 -1.89386 5.7807 -0.726899 -9.94264 -7.45443e-017 -3.18055e-015 -0 14.1909 -10.3302 -16.5378 13.8178 -21.0723 5.6693 -0.145946 -1.51942 -10.8814 -7.45443e-017 -3.18055e-015 -0 -4.01581 -2.72517 7.57008 -15.4022 -23.0692 -6.56599 0.135601 -1.46389 10.4783 
80.8109 86.3397 -0.56561 3.15932 0.537899 -0.0126004 -3.86297 -11.9743 2.7671 0.159006 30.5423 -0.367716 1.41974 -4.68433 3.51715 -4.67135e-016 -5 -7.98176e-016 -2.7632 -24.9279 -10.9093 -0.842546 58.0658 0.758431 -1.07877 -3.80653 -21.393 -1.59028e-015 -5 -0 -3.79774 8.43284 -1.97139 6.14104 -1.11103 -10.5941 1.98785e-016 0 -0 15.3455 -12.1545 -17.7634 14.3492 -21.7511 5.96524 -0.113505 -1.33966 -9.58047 1.98785e-016 0 -0 -3.77624 -2.56177 7.35675 -15.4102 -23.0789 -6.5706 0.163782 -1.60912 11.5318 
80.651 86.0299 2.15646 3.96088 1.11176 -1.19953 -4.63236 -10.4943 2.98356 0.152687 29.838 -0.370304 1.65434 -6.1626 5.78801 2.58438e-016 -5 -1.59635e-015 -3.42624 -27.9435 -11.8547 -0.575666 51.6614 0.497537 -1.17607 -3.29908 -23.5164 4.2936e-015 -5 1.27708e-014 -4.64825 8.10529 -2.00732 6.40298 -1.02578 -10.3518 -0 -1.59028e-015 -0 16.6683 -13.4483 -18.2345 14.4265 -21.8489 6.00874 -0.11492 -1.34853 -9.64419 -0 -1.59028e-015 -0 -3.36025 -2.23421 7.55213 -15.8592 -23.6273 -6.83201 0.157639 -1.57892 11.3117 
80.4465 85.8172 4.83314 5.13283 1.67026 -2.75727 -5.82246 -8.1531 3.43566 0.132686 27.7011 -0.350582 1.71741 -6.20735 6.67915 3.87657e-016 -5 -2.39453e-015 -4.3767 -30.3511 -13.3821 -0.369062 44.2832 0.31013 -0.340926 -0.504214 -23.1543 -2.34577e-015 -5 9.57811e-015 -5.859 7.79114 -2.07046 6.62169 -1.2276 -10.3167 1.98785e-016 -1.59028e-015 -0 17.5596 -13.8708 -17.6647 15.412 -23.0781 6.57117 -0.0789254 -1.11534 -7.96535 1.98785e-016 -1.59028e-015 -0 -3.0745 -2.5286 7.64201 -15.8751 -23.6467 -6.84122 0.135916 -1.46606 10.4951 
80.0655 85.8654 7.55997 6.02504 2.15292 -4.70743 -6.78804 -5.17039 3.37588 0.106968 24.4795 -0.335059 1.99042 -6.49332 8.99245 -7.85226e-016 -5 2.39453e-015 -4.32896 -31.79 -14.6847 -0.21756 36.0882 0.19393 -1.70587 -2.77739 -23.6066 -1.15306e-015 -5 9.57811e-015 -6.45032 6.94357 -1.92338 6.37903 -0.537271 -10.474 1.32417e-031 -3.18055e-015 2.38542e-015 18.2151 -14.0113 -17.021 15.5149 -23.2046 6.63077 -0.0654816 -1.01403 -7.23857 1.32417e-031 -3.18055e-015 2.38542e-015 -3.10465 -2.42733 8.32197 -16.1465 -23.9741 -7.00075 0.140319 -1.48962 10.6648 
